# xmcd
#
# Track frame offsets:
#	200
#	10720
#	28332
#	41547
#	57995
#	70782
#	82510
#	93625
#	110200
#	124005
#	141155
#	151662
#
# Disc length: 2181 seconds
#
# Revision: 1
# Processed by: cddbd v1.4PL0 Copyright (c) Steve Scherf et al.
# Submitted via: audiograbber 1.81.02
#
DISCID=9508830c
DTITLE=Country Gentlemen - Calling My Children Home
DYEAR=1992
DGENRE=Country
TTITLE0=The place prepared for me
TTITLE1=I'm ready to go home
TTITLE2=Hallelujah side
TTITLE3=Palms of victory
TTITLE4=Calling my children home
TTITLE5=Inside the gate
TTITLE6=I've never been there
TTITLE7=The great beyond
TTITLE8=Lord I'm just a pilgram
TTITLE9=Where could I go
TTITLE10=Come on Dear lord and get me
TTITLE11=where no cabins fall
EXTD=
EXTT0=
EXTT1=
EXTT2=
EXTT3=
EXTT4=
EXTT5=
EXTT6=
EXTT7=
EXTT8=
EXTT9=
EXTT10=
EXTT11=
PLAYORDER=
